<?xml version="1.0" encoding="UTF-8" standalone="no"?>
<!DOCTYPE svg PUBLIC "-//W3C//DTD SVG 1.1//EN" "http://www.w3.org/Graphics/SVG/1.1/DTD/svg11.dtd">
<svg width="100%" height="100%" viewBox="0 0 290 290" version="1.1" xmlns="http://www.w3.org/2000/svg" xmlns:xlink="http://www.w3.org/1999/xlink" xml:space="preserve" xmlns:serif="http://www.serif.com/" style="fill-rule:evenodd;clip-rule:evenodd;stroke-linejoin:round;stroke-miterlimit:2;">
    <g transform="matrix(1,0,0,1,-275,-155)">
        <g id="SYMBOL---SQUARED" serif:id="SYMBOL / SQUARED" transform="matrix(1,0,0,1,-1.76938,0.156375)">
            <g transform="matrix(1,0,0,1,461.544,287.791)">
                <path d="M0,-123.891C-15.05,-123.891 -27.363,-111.578 -27.363,-96.528L-27.364,-27.363C-27.364,-12.314 -15.05,0 0,0L69.164,0C84.214,0 96.528,-12.314 96.528,-27.363L96.528,-96.528C96.528,-111.578 84.214,-123.891 69.164,-123.891L0,-123.891Z" style="fill:rgb(0,205,74);fill-rule:nonzero;"/>
            </g>
            <g transform="matrix(1,0,0,1,461.536,171.937)">
                <path d="M0,115.853L69.181,115.853C76.703,115.851 83.54,112.773 88.498,107.815L-19.317,0C-24.274,4.958 -27.352,11.795 -27.355,19.317L-27.355,88.49C-27.355,103.537 -15.046,115.849 0,115.853" style="fill:rgb(0,118,77);fill-rule:nonzero;"/>
            </g>
            <g transform="matrix(1,0,0,1,308.822,310.9)">
                <path d="M0,123.891C-14.066,123.891 -18.94,114.487 -10.831,102.994L5.672,79.604C12.525,69.892 12.525,53.999 5.672,44.287L-10.831,20.897C-18.94,9.404 -14.066,0 0,0L72.742,0C86.808,0 91.682,9.404 83.572,20.897L67.07,44.287C60.217,53.999 60.217,69.892 67.07,79.604L83.573,102.994C91.682,114.487 86.808,123.891 72.742,123.891L0,123.891Z" style="fill:rgb(255,82,69);fill-rule:nonzero;"/>
            </g>
            <g transform="matrix(1,0,0,1,496.696,340.634)">
                <path d="M0,64.423C-17.79,64.423 -32.211,50.001 -32.211,32.211C-32.211,14.421 -17.79,-0 0,-0C17.79,-0 32.212,14.421 32.212,32.211C32.212,50.001 17.79,64.423 0,64.423M0,-32.212C-35.58,-32.212 -64.423,-3.369 -64.423,32.211C-64.423,67.791 -35.58,96.635 0,96.635C35.58,96.635 64.423,67.791 64.423,32.211C64.423,-3.369 35.58,-32.212 0,-32.212" style="fill:rgb(0,128,234);fill-rule:nonzero;"/>
            </g>
            <g transform="matrix(1,0,0,1,358.502,273.702)">
                <path d="M0,-100.717C-7.32,-114.806 -19.299,-114.806 -26.619,-100.717L-72.959,-11.528C-80.279,2.561 -74.29,14.089 -59.65,14.089L33.031,14.089C47.671,14.089 53.66,2.561 46.34,-11.528L0,-100.717Z" style="fill:rgb(255,174,0);fill-rule:nonzero;"/>
            </g>
        </g>
    </g>
</svg>
