<?xml version="1.0" encoding="UTF-8" standalone="no"?>
<!DOCTYPE svg PUBLIC "-//W3C//DTD SVG 1.1//EN" "http://www.w3.org/Graphics/SVG/1.1/DTD/svg11.dtd">
<svg width="100%" height="100%" viewBox="0 0 103 124" version="1.1" xmlns="http://www.w3.org/2000/svg" xmlns:xlink="http://www.w3.org/1999/xlink" xml:space="preserve" xmlns:serif="http://www.serif.com/" style="fill-rule:evenodd;clip-rule:evenodd;stroke-linejoin:round;stroke-miterlimit:2;">
    <g transform="matrix(1,0,0,1,-455.438,-237.4)">
        <g transform="matrix(1,0,0,1,470.191,237.4)">
            <g id="SYMBOL---HORIZONTAL" serif:id="SYMBOL / HORIZONTAL">
                <path d="M0,123.891C-14.066,123.891 -18.94,114.487 -10.831,102.994L5.672,79.604C12.525,69.892 12.525,53.999 5.672,44.287L-10.831,20.897C-18.94,9.404 -14.066,0 0,0L72.742,0C86.808,0 91.682,9.404 83.572,20.897L67.07,44.287C60.217,53.999 60.217,69.892 67.07,79.604L83.573,102.994C91.682,114.487 86.808,123.891 72.742,123.891L0,123.891Z" style="fill:rgb(255,82,69);fill-rule:nonzero;"/>
            </g>
        </g>
    </g>
</svg>
