<?xml version="1.0" encoding="UTF-8" standalone="no"?>
<!DOCTYPE svg PUBLIC "-//W3C//DTD SVG 1.1//EN" "http://www.w3.org/Graphics/SVG/1.1/DTD/svg11.dtd">
<svg width="100%" height="100%" viewBox="0 0 639 50" version="1.1" xmlns="http://www.w3.org/2000/svg" xmlns:xlink="http://www.w3.org/1999/xlink" xml:space="preserve" xmlns:serif="http://www.serif.com/" style="fill-rule:evenodd;clip-rule:evenodd;stroke-linejoin:round;stroke-miterlimit:2;">
    <g transform="matrix(1,0,0,1,-103.929,-273.716)">
        <g id="LOGO---MAIN" serif:id="LOGO / MAIN">
            <g transform="matrix(1,0,0,1,175.841,321.841)">
                <path d="M0,-47.108C-5.723,-47.108 -10.405,-42.426 -10.405,-36.703L-10.405,-10.405C-10.405,-4.682 -5.723,0 0,0L26.299,0C32.021,0 36.704,-4.682 36.704,-10.405L36.704,-36.703C36.704,-42.426 32.021,-47.108 26.299,-47.108L0,-47.108Z" style="fill:rgb(0,205,74);fill-rule:nonzero;"/>
            </g>
            <g transform="matrix(1,0,0,1,175.838,277.789)">
                <path d="M0,44.052L26.305,44.052C29.165,44.051 31.765,42.881 33.65,40.996L-7.345,0C-9.23,1.885 -10.4,4.485 -10.401,7.345L-10.401,33.647C-10.401,39.369 -5.721,44.05 0,44.052" style="fill:rgb(0,118,77);fill-rule:nonzero;"/>
            </g>
            <g transform="matrix(1,0,0,1,233.255,274.733)">
                <path d="M0,47.108C-5.348,47.108 -7.202,43.532 -4.118,39.162L2.157,30.268C4.762,26.575 4.762,20.532 2.157,16.839L-4.118,7.946C-7.202,3.575 -5.348,0 0,0L27.659,0C33.008,0 34.861,3.575 31.777,7.946L25.502,16.839C22.897,20.532 22.897,26.575 25.502,30.268L31.778,39.162C34.861,43.532 33.008,47.108 27.659,47.108L0,47.108Z" style="fill:rgb(255,82,69);fill-rule:nonzero;"/>
            </g>
            <g transform="matrix(1,0,0,1,301.262,286.039)">
                <path d="M0,24.496C-6.764,24.496 -12.248,19.012 -12.248,12.248C-12.248,5.483 -6.764,0 0,0C6.764,0 12.248,5.483 12.248,12.248C12.248,19.012 6.764,24.496 0,24.496M0,-12.248C-13.529,-12.248 -24.496,-1.281 -24.496,12.248C-24.496,25.777 -13.529,36.744 0,36.744C13.529,36.744 24.496,25.777 24.496,12.248C24.496,-1.281 13.529,-12.248 0,-12.248" style="fill:rgb(0,128,234);fill-rule:nonzero;"/>
            </g>
            <g transform="matrix(1,0,0,1,132.859,316.485)">
                <path d="M0,-38.297C-2.783,-43.654 -7.338,-43.654 -10.121,-38.297L-27.742,-4.384C-30.525,0.973 -28.248,5.357 -22.681,5.357L12.56,5.357C18.126,5.357 20.404,0.973 17.62,-4.384L0,-38.297Z" style="fill:rgb(255,174,0);fill-rule:nonzero;"/>
            </g>
            <g transform="matrix(1,0,0,1,373.204,300.431)">
                <path d="M0,-4.192C0.089,-3.238 0.177,-2.184 0.266,-1.031C0.355,0.123 0.41,1.475 0.432,3.028C0.454,4.581 0.466,6.399 0.466,8.484L0.466,21.193L22.956,21.193L-0.065,-4.859C-0.057,-4.791 -0.04,-4.618 0,-4.192M23.223,-1.73C23.09,-3.171 22.967,-4.502 22.857,-5.722C22.745,-6.942 22.657,-8.106 22.591,-9.216C22.524,-10.324 22.491,-11.478 22.491,-12.676L22.491,-25.385L-0.133,-25.385L23.51,0.918C23.51,0.918 23.356,-0.288 23.223,-1.73" style="fill-rule:nonzero;"/>
            </g>
            <g transform="matrix(1,0,0,1,437.325,273.716)">
                <path d="M0,48.574C-4.037,48.574 -7.764,47.997 -11.179,46.844C-14.595,45.691 -17.578,44.027 -20.128,41.854C-22.68,39.681 -24.653,37.107 -26.051,34.135C-27.448,31.163 -28.147,27.88 -28.147,24.287C-28.147,20.693 -27.438,17.411 -26.018,14.439C-24.598,11.467 -22.624,8.894 -20.096,6.72C-17.567,4.547 -14.595,2.884 -11.179,1.73C-7.764,0.576 -4.015,0 0.066,0C2.638,0 5.157,0.266 7.619,0.798C10.081,1.33 12.387,2.119 14.539,3.16C16.69,4.203 18.608,5.456 20.295,6.92L11.977,17.566C11.178,16.768 10.191,16.014 9.016,15.304C7.84,14.595 6.476,14.018 4.924,13.574C3.371,13.131 1.574,12.908 -0.466,12.908C-2.108,12.908 -3.693,13.153 -5.224,13.64C-6.754,14.129 -8.129,14.849 -9.349,15.803C-10.57,16.757 -11.545,17.955 -12.277,19.396C-13.009,20.838 -13.375,22.535 -13.375,24.486C-13.375,26.261 -12.998,27.858 -12.243,29.277C-11.49,30.698 -10.437,31.895 -9.083,32.871C-7.73,33.847 -6.188,34.579 -4.458,35.066C-2.728,35.555 -0.888,35.798 1.065,35.798C3.061,35.798 4.834,35.522 6.388,34.966C7.94,34.412 9.326,33.725 10.546,32.904C11.766,32.083 12.819,31.318 13.707,30.608L20.494,41.454C19.207,42.608 17.5,43.728 15.371,44.814C13.241,45.902 10.856,46.8 8.218,47.509C5.578,48.218 2.838,48.574 0,48.574" style="fill-rule:nonzero;"/>
            </g>
            <g transform="matrix(1,0,0,1,469.44,275.046)">
                <path d="M0,46.578L0,0L14.373,0L14.373,34.335L39.525,34.335L39.525,46.578L0,46.578Z" style="fill-rule:nonzero;"/>
            </g>
            <g transform="matrix(1,0,0,1,540.745,275.046)">
                <path d="M0,46.977C-4.614,46.977 -8.683,46.09 -12.21,44.315C-15.737,42.542 -18.477,40.08 -20.428,36.929C-22.38,33.78 -23.356,30.209 -23.356,26.216L-23.356,0L-8.85,0L-8.85,25.817C-8.85,27.592 -8.474,29.144 -7.719,30.475C-6.965,31.806 -5.922,32.837 -4.591,33.569C-3.26,34.301 -1.73,34.667 0,34.667C1.774,34.667 3.36,34.301 4.758,33.569C6.155,32.837 7.242,31.806 8.018,30.475C8.794,29.144 9.183,27.592 9.183,25.817L9.183,0L23.356,0L23.356,26.216C23.356,30.209 22.38,33.78 20.428,36.929C18.475,40.08 15.747,42.542 12.243,44.315C8.739,46.09 4.658,46.977 0,46.977" style="fill-rule:nonzero;"/>
            </g>
            <g transform="matrix(1,0,0,1,610.616,294.243)">
                <path d="M0,8.184C-0.511,9.493 -1.276,10.669 -2.296,11.711C-3.317,12.753 -4.591,13.585 -6.122,14.206C-7.652,14.828 -9.394,15.137 -11.345,15.137L-20.128,15.137L-20.128,-6.954L-11.345,-6.954C-9.394,-6.954 -7.664,-6.643 -6.155,-6.022C-4.647,-5.401 -3.372,-4.569 -2.329,-3.527C-1.287,-2.484 -0.511,-1.309 0,-0.001C0.509,1.308 0.765,2.672 0.765,4.091C0.765,5.512 0.509,6.876 0,8.184M13.608,-4.924C12.365,-7.741 10.59,-10.225 8.284,-12.377C5.977,-14.528 3.204,-16.203 -0.033,-17.401C-3.272,-18.599 -6.932,-19.197 -11.013,-19.197L-34.501,-19.197L-34.501,27.381L-11.013,27.381C-6.977,27.381 -3.327,26.782 -0.067,25.584C3.194,24.387 5.977,22.723 8.284,20.594C10.59,18.464 12.365,15.992 13.608,13.174C14.849,10.358 15.471,7.33 15.471,4.091C15.471,0.898 14.849,-2.107 13.608,-4.924" style="fill-rule:nonzero;"/>
            </g>
            <g transform="matrix(1,0,0,1,726.522,294.243)">
                <path d="M0,8.184C-0.511,9.493 -1.276,10.669 -2.296,11.711C-3.317,12.753 -4.591,13.585 -6.122,14.206C-7.652,14.828 -9.394,15.137 -11.345,15.137L-20.128,15.137L-20.128,-6.954L-11.345,-6.954C-9.394,-6.954 -7.664,-6.643 -6.155,-6.022C-4.647,-5.401 -3.372,-4.569 -2.329,-3.527C-1.287,-2.484 -0.511,-1.309 0,-0.001C0.509,1.308 0.765,2.672 0.765,4.091C0.765,5.512 0.509,6.876 0,8.184M13.608,-4.924C12.365,-7.741 10.59,-10.225 8.284,-12.377C5.977,-14.528 3.204,-16.203 -0.033,-17.401C-3.272,-18.599 -6.932,-19.197 -11.013,-19.197L-34.502,-19.197L-34.502,27.381L-11.013,27.381C-6.977,27.381 -3.327,26.782 -0.067,25.584C3.194,24.387 5.977,22.723 8.284,20.594C10.59,18.464 12.365,15.992 13.608,13.174C14.849,10.358 15.47,7.33 15.47,4.091C15.47,0.898 14.849,-2.107 13.608,-4.924" style="fill-rule:nonzero;"/>
            </g>
            <g transform="matrix(1,0,0,1,0,36.327)">
                <rect x="637.438" y="273.652" width="41.189" height="11.645"/>
            </g>
            <g transform="matrix(1,0,0,1,0,-33.539)">
                <rect x="637.438" y="308.585" width="41.189" height="11.645"/>
            </g>
            <g transform="matrix(1,0,0,1,0,1.393)">
                <rect x="637.438" y="291.119" width="41.189" height="11.645"/>
            </g>
            <g transform="matrix(-1,0,0,1,705.769,1.394)">
                <rect x="345.704" y="273.652" width="14.361" height="46.578"/>
            </g>
        </g>
    </g>
</svg>
