<?xml version="1.0" encoding="utf-8"?>
<!-- Generator: Adobe Illustrator 25.4.4, SVG Export Plug-In . SVG Version: 6.00 Build 0)  -->
<svg version="1.1" id="DARK_GREEN" xmlns="http://www.w3.org/2000/svg" xmlns:xlink="http://www.w3.org/1999/xlink" x="0px" y="0px"
	 viewBox="0 0 500 500" style="enable-background:new 0 0 500 500;" xml:space="preserve">
<style type="text/css">
	.st0{fill:#00764D;}
</style>
<g>
	<path class="st0" d="M317.7,425.9l-29.7,26c-1.6,1.4-3.4,2.1-4.9,2.1c-2.9,0-5.5-2.3-6.5-6.6l-10.2-41.6c-1.3-5.1,0.8-8.3,4.7-8.3
		c1.1,0,2.4,0.3,3.8,0.8l39.9,15.5C321.1,416.4,322.4,421.8,317.7,425.9z M316.6,420.4c-0.1-0.8-1.1-1.9-3.3-2.8l-39.9-15.5
		c-1.1-0.4-1.9-0.5-2.4-0.5c-0.2,0-0.7,0-0.9,0.3c-0.2,0.3-0.5,1.3,0,3.2l10.2,41.6c0.5,2.2,1.6,3.7,2.7,3.7c0.7,0,1.5-0.4,2.4-1.2
		l29.7-26C316.2,422.1,316.8,421.1,316.6,420.4z"/>
	<path class="st0" d="M370.8,384.2c0,9.7-7.9,17.6-17.6,17.6c-9.7,0-17.6-7.9-17.6-17.6c0-9.7,7.9-17.6,17.6-17.6
		C362.9,366.7,370.8,374.5,370.8,384.2z M366.9,384.2c0-7.6-6.1-13.7-13.7-13.7s-13.7,6.1-13.7,13.7s6.1,13.7,13.7,13.7
		S366.9,391.8,366.9,384.2z"/>
	<path class="st0" d="M380.6,384.2c0,15.2-12.3,27.4-27.4,27.4c-15.2,0-27.4-12.3-27.4-27.4c0-15.2,12.3-27.4,27.4-27.4
		C368.3,356.8,380.6,369.1,380.6,384.2z M376.7,384.2c0-13-10.6-23.6-23.6-23.6c-13,0-23.6,10.6-23.6,23.6c0,13,10.6,23.6,23.6,23.6
		C366.2,407.8,376.7,397.2,376.7,384.2z"/>
	<path class="st0" d="M403.9,306.7l-5.9,4.2c-3.7,2.6-9.8,6.9-13.5,9.5l-5.9,4.2c-1.6,1.1-3.1,1.7-4.4,1.7c-2.7,0-4.5-2.3-4.5-6.3
		l0-12.2c0-5.1-3.9-10.6-8.7-12.3l-11.5-4.1c-5.6-2-6.2-6.5-1.4-9.9l5.9-4.2c3.7-2.6,9.8-6.9,13.5-9.5l5.9-4.2
		c1.6-1.1,3.1-1.7,4.4-1.7c2.7,0,4.5,2.3,4.5,6.3l0,12.2c0,5.1,3.9,10.6,8.7,12.3l11.5,4.1C408.2,298.8,408.8,303.2,403.9,306.7z
		 M403.4,301.7c-0.1-0.2-0.6-0.8-2.1-1.3l-11.5-4.1c-6.3-2.2-11.2-9.3-11.2-15.9l0-12.2c0-1.6-0.4-2.3-0.5-2.4c0,0,0,0-0.1,0
		c-0.4,0-1.2,0.3-2.2,1l-5.9,4.2l-10.7,7.5l-2.8,1.9l-5.9,4.2c-1.3,0.9-1.6,1.6-1.7,1.8c0.1,0.2,0.6,0.8,2.1,1.3l11.5,4.1
		c6.3,2.2,11.2,9.3,11.2,15.9l0,12.2c0,1.6,0.4,2.3,0.5,2.4c0,0,0,0,0.1,0c0.4,0,1.2-0.3,2.2-1l5.9-4.2l13.5-9.5l5.9-4.2
		C403,302.6,403.4,301.9,403.4,301.7z"/>
	<path class="st0" d="M431.5,337c-3.2,0-5.8,2.7-6.7,7.8l-9,52.7c-1.2,6.9,2,11.4,7.3,11.4c1.1,0,2.3-0.2,3.6-0.6l35.9-11.5v-4.1
		l-37,11.9c-0.9,0.3-1.7,0.4-2.4,0.4c-1.2,0-2-0.3-2.6-1.1c-1-1.2-1.3-3.3-0.9-5.8l9-52.7c0.4-2.2,1.3-4.6,2.9-4.6
		c0.5,0,2,0.2,4.1,2.3l27,26.8v-5.4l-24.3-24.1C435.9,338.1,433.6,337,431.5,337z"/>
	<path class="st0" d="M462.5,433L462.5,433l0.1,4.1l-1.3-0.4c-1.1-0.4-2.3-0.6-3.4-0.6c-1.7,0-3.3,0.4-4.7,1.1l1.6,3.2l2.8,5.7h0
		l1.7,3.5l2.8,5.7h0l0.6,1.1v2.9v3.1h-1.4l-1-2l-4.2,2h-8.9l11.4-5.5l-2.8-5.7l-12.9,6.3l-1.7,5H437h0l6.7-19.4l0.4-1.1l0,0
		c0.1-0.3,0.2-0.6,0.4-0.9c0,0,0,0,0,0c0-0.1,0.1-0.1,0.1-0.2c0.1-0.3,0.3-0.6,0.4-0.9c0-0.1,0.1-0.1,0.1-0.1
		c0.1-0.3,0.3-0.5,0.5-0.8c0-0.1,0.1-0.1,0.1-0.2c0.2-0.3,0.4-0.5,0.6-0.8c0-0.1,0.1-0.1,0.1-0.2c0.2-0.3,0.4-0.5,0.6-0.7
		c0,0,0,0,0-0.1c0.2-0.2,0.5-0.5,0.7-0.7c0.1-0.1,0.1-0.1,0.2-0.2c0.2-0.2,0.5-0.4,0.7-0.6c0,0,0.1-0.1,0.1-0.1
		c0.2-0.2,0.5-0.4,0.7-0.5c0.1,0,0.1-0.1,0.2-0.1c0.3-0.2,0.5-0.4,0.8-0.5c0.1,0,0.1-0.1,0.2-0.1c0.3-0.2,0.5-0.3,0.8-0.4
		c0,0,0.1,0,0.1,0c0,0,0,0,0,0l0,0c2-1,4.2-1.5,6.4-1.5C459.4,432.2,461,432.5,462.5,433z M451.2,442.1l-3.7,1.8l-2.9,8.5l9.5-4.6
		L451.2,442.1z"/>
	<path class="st0" d="M370.6,455.8l-29.2-4.2c-0.6-0.1-1.1-0.1-1.6-0.1c-2.6,0-5,0.9-7,2.3l0,0c-0.1,0.1-0.3,0.2-0.4,0.3
		c0,0-0.1,0.1-0.1,0.1c0,0-0.1,0.1-0.1,0.1c-0.2,0.2-0.4,0.4-0.7,0.6c0,0-0.1,0.1-0.1,0.1c-0.2,0.2-0.4,0.5-0.6,0.7c0,0,0,0,0,0
		c-0.2,0.2-0.4,0.5-0.6,0.7c0,0,0,0-0.1,0.1c-0.2,0.2-0.3,0.5-0.4,0.7l0,0c0,0,0,0,0,0.1c0,0,0,0.1-0.1,0.1
		c-0.1,0.3-0.3,0.5-0.4,0.8c0,0,0,0.1-0.1,0.1c-0.1,0.3-0.2,0.6-0.3,0.9c0,0,0,0.1,0,0.1c-0.1,0.2-0.2,0.5-0.2,0.7
		c0,0.1,0,0.1,0,0.2c0,0,0,0.1,0,0.1c0,0,0,0.1,0,0.1c-0.1,0.3-0.1,0.6-0.2,0.9l-0.1,1h1.1h2.8h0l0.1-0.5c0-0.2,0.1-0.4,0.1-0.6
		c0-0.1,0-0.1,0-0.1c0-0.2,0.1-0.4,0.2-0.5c0,0,0-0.1,0-0.1c0.1-0.2,0.1-0.4,0.2-0.6l1.8,2.5h4.8l-3.6-4.8l0,0l-0.6-0.8
		c1.3-1,2.9-1.6,4.7-1.6c0.4,0,0.7,0,1.1,0.1l29.2,4.2c2,0.3,3.8,1.3,5,2.9h4.5C377.9,459.1,374.6,456.4,370.6,455.8z"/>
	<path class="st0" d="M269.2,315.8c0-0.2,0-0.3,0-0.5c0-0.2,0-0.5,0.1-0.7c0,0,0-0.1,0-0.1c0-0.1,0-0.2,0-0.3c0-0.2,0.1-0.4,0.1-0.6
		c0-0.2,0.1-0.3,0.1-0.5c0,0,0,0,0,0c0-0.2,0.1-0.3,0.1-0.5c0.1-0.2,0.1-0.4,0.2-0.6c0-0.1,0.1-0.3,0.2-0.4c0.1-0.2,0.2-0.4,0.2-0.6
		c0-0.1,0.1-0.2,0.1-0.2c0.4-0.9,1-1.7,1.6-2.5c0.3-0.3,0.6-0.7,0.9-1l2.9-2.7l3.5-3.3l0.7-0.7l2.3-2.2l0.4-0.3l3.6-3.4l1.4-1.3
		l6.6-6.1c0,0,0,0,0,0l0,0c0,0,0,0,0,0c0.1,0,0.1-0.1,0.2-0.1c0.2-0.2,0.5-0.4,0.7-0.6c0,0,0,0,0,0c0.1-0.1,0.2-0.1,0.3-0.2
		c0,0,0,0,0,0c0.2-0.1,0.3-0.2,0.5-0.4c0,0,0.1,0,0.1-0.1c0.1-0.1,0.3-0.1,0.4-0.2c0.1,0,0.2-0.1,0.3-0.1c0.1-0.1,0.2-0.1,0.3-0.2
		c0,0,0,0,0,0c0.1-0.1,0.3-0.1,0.4-0.2c0,0,0,0,0,0c0.2-0.1,0.3-0.1,0.5-0.2l0,0c0.1,0,0.2-0.1,0.4-0.1c0,0,0.1,0,0.1,0
		c0.3-0.1,0.5-0.2,0.8-0.2c0.1,0,0.1,0,0.2,0c0.2-0.1,0.5-0.1,0.7-0.2c0.3-0.1,0.6-0.1,0.9-0.1c0.4,0,0.7,0,1.1,0c0.2,0,0.3,0,0.5,0
		v0c3,0.1,5.9,1.4,8.1,3.7l20,21.6c4.4,4.7,4.1,12.1-0.6,16.5l-21.6,20c-2.2,2.1-5.1,3.1-7.9,3.1c-0.2,0-0.3,0-0.5,0v0c0,0,0,0,0,0
		c-0.3,0-0.7,0-1-0.1c0,0-0.1,0-0.1,0c-0.3,0-0.6-0.1-1-0.2c0,0-0.1,0-0.1,0c-0.3-0.1-0.6-0.2-0.9-0.3c0,0-0.1,0-0.1-0.1
		c-0.3-0.1-0.6-0.2-0.9-0.4c0,0-0.1,0-0.1-0.1c-0.3-0.1-0.6-0.3-0.9-0.5c0,0-0.1,0-0.1-0.1c-0.3-0.2-0.6-0.4-0.9-0.6
		c0,0-0.1,0-0.1-0.1c-0.3-0.2-0.6-0.4-0.8-0.7c0,0,0,0,0,0c-0.3-0.3-0.6-0.5-0.8-0.8c0,0,0,0,0,0l0,0c0,0,0,0,0,0l-20-21.6
		c0,0,0,0,0,0l0,0c-0.1-0.1-0.1-0.1-0.2-0.2c-0.2-0.2-0.4-0.5-0.6-0.7c-0.1-0.1-0.1-0.2-0.2-0.3c-0.2-0.2-0.3-0.4-0.5-0.7
		c-0.1-0.1-0.1-0.2-0.2-0.4c-0.1-0.2-0.2-0.4-0.4-0.7c-0.1-0.2-0.1-0.3-0.2-0.5c-0.1-0.2-0.2-0.4-0.2-0.5c-0.1-0.2-0.1-0.4-0.2-0.6
		c-0.1-0.2-0.1-0.4-0.2-0.5c0-0.1,0-0.2-0.1-0.3l0,0c-0.1-0.3-0.1-0.6-0.2-0.8c0-0.2,0-0.4-0.1-0.6c0-0.2,0-0.3,0-0.5
		C269.2,316.2,269.2,316,269.2,315.8z M297.6,319.6l-24.1-1c0.1,0.2,0.2,0.4,0.3,0.6c0,0.1,0.1,0.1,0.1,0.2c0.1,0.2,0.2,0.3,0.2,0.5
		c0.1,0.1,0.2,0.2,0.2,0.3c0.1,0.1,0.1,0.2,0.2,0.3c0.1,0.2,0.3,0.4,0.5,0.6c0,0,0,0,0,0l3.8,4.1l18.5,0.8L297.6,319.6z
		 M297.2,329.8l-14.6-0.6l6.2,6.7l8.2,0.3L297.2,329.8z M295.1,342.7c0.2,0.2,0.3,0.4,0.5,0.5c0,0,0.1,0.1,0.1,0.1
		c0.3,0.3,0.6,0.5,1,0.7l0.2-3.9l-4.3-0.2L295.1,342.7z M302.7,288l0,0.9l-0.2,6.4l-0.2,3.9h0l-0.2,6.4l-0.2,3.9l-0.2,6.4l-0.2,3.9
		l-0.2,6.4l0,0l-0.2,3.9l0,0l-0.6,15.1c0.1,0,0.2,0,0.3,0c2,0,3.8-0.7,5.3-2.1l21.6-20c3.1-2.9,3.3-7.8,0.4-11l-20-21.6
		C306.7,289,304.8,288.1,302.7,288z M297.1,290.1l-5.2,4.9l6.7,0.3l0.2-6.3c-0.2,0.1-0.3,0.2-0.5,0.3c0,0-0.1,0.1-0.1,0.1
		c-0.1,0.1-0.3,0.2-0.4,0.3c0,0-0.1,0.1-0.1,0.1C297.4,289.8,297.3,289.9,297.1,290.1C297.1,290.1,297.1,290.1,297.1,290.1z
		 M281.3,304.7l16.9,0.7l0.2-6.4l-10.5-0.4l-5.4,5l-0.5,0.5L281.3,304.7z M277.2,308.4l-1.7,1.6c-0.2,0.2-0.4,0.4-0.5,0.6
		c-0.1,0.1-0.2,0.2-0.2,0.3c-0.1,0.1-0.2,0.2-0.2,0.3c-0.1,0.1-0.2,0.3-0.3,0.4c0,0.1-0.1,0.1-0.1,0.2c-0.5,0.9-0.8,1.8-1,2.8
		l24.7,1l0.2-6.4L277.2,308.4z"/>
	<path class="st0" d="M460.8,168l1.8-0.6v1.3v4.2l-2-0.8l-9.6,2.9l11.7,4.9v4.2l-17.5-7.3l-2.5,0.7c0,0,0,0-0.1,0
		c-0.2,0.1-0.4,0.1-0.7,0.2c-0.1,0-0.2,0.1-0.3,0.2c-0.1,0.1-0.2,0.1-0.3,0.2c-0.2,0.1-0.3,0.2-0.5,0.3c-0.1,0-0.1,0.1-0.2,0.1
		c-0.2,0.1-0.4,0.3-0.6,0.4c0,0,0,0,0,0c-0.7,0.5-1.2,1.2-1.7,1.9l22.9,9.5l1.4-2.6v3.2v4.2v0.8l-2.7,5h0l-1.8,3.4v0l-3,5.7
		l-1.8,3.4l-3,5.7l-0.4,0.8c1.1,0.6,2.4,0.9,3.7,0.9c0.8,0,1.5-0.1,2.2-0.3l6.9-2.1v4l-5.8,1.8c-1.1,0.3-2.2,0.5-3.4,0.5
		c-1.9,0-3.8-0.5-5.5-1.4l0,0c-0.1,0-0.1-0.1-0.2-0.1c-0.2-0.1-0.4-0.2-0.6-0.4c-0.1-0.1-0.2-0.1-0.3-0.2c-0.2-0.1-0.4-0.3-0.6-0.4
		c-0.1-0.1-0.2-0.1-0.3-0.2c-0.2-0.2-0.4-0.3-0.6-0.5c-0.1-0.1-0.1-0.1-0.2-0.2c-0.1-0.1-0.1-0.1-0.2-0.2l0,0
		c-0.2-0.2-0.4-0.4-0.5-0.6c-0.1-0.1-0.1-0.1-0.2-0.2c-0.2-0.2-0.3-0.4-0.5-0.6c-0.1-0.1-0.1-0.2-0.2-0.3c-0.1-0.2-0.3-0.4-0.4-0.6
		c-0.1-0.1-0.1-0.2-0.2-0.3c-0.1-0.2-0.2-0.4-0.3-0.7c0-0.1-0.1-0.2-0.1-0.3c-0.1-0.3-0.3-0.7-0.4-1c0,0,0,0,0,0l0,0c0,0,0,0,0,0
		l-8.5-28.2c0,0,0,0,0,0l0,0c0,0,0-0.1,0-0.1c0-0.2-0.1-0.3-0.1-0.5c0,0,0-0.1,0-0.1c0-0.2-0.1-0.3-0.1-0.5c0,0,0,0,0,0
		c0-0.2-0.1-0.4-0.1-0.6c0-0.1,0-0.1,0-0.2c0-0.1,0-0.2,0-0.4c0,0,0-0.1,0-0.1c0-0.1,0-0.1,0-0.2c0-0.1,0-0.2,0-0.3c0,0,0-0.1,0-0.1
		c0-0.1,0-0.2,0-0.3c0-0.1,0-0.2,0-0.3c0-0.1,0-0.2,0-0.3c0-0.1,0-0.2,0-0.3c0-0.1,0-0.3,0-0.4c0-0.1,0-0.1,0-0.2
		c0-0.2,0-0.3,0.1-0.5c0,0,0,0,0-0.1l0,0c0,0,0,0,0-0.1c0.1-0.3,0.1-0.6,0.2-0.9c0,0,0,0,0,0c0.1-0.4,0.2-0.7,0.3-1c0,0,0,0,0,0
		c0.1-0.3,0.3-0.7,0.4-1c0,0,0,0,0,0c0.1-0.2,0.2-0.4,0.3-0.6c0-0.1,0.1-0.2,0.1-0.2c0.1-0.1,0.1-0.2,0.2-0.3
		c0.2-0.3,0.3-0.5,0.5-0.8c0,0,0.1-0.1,0.1-0.1c0.1-0.1,0.2-0.2,0.3-0.3c0.1-0.1,0.1-0.2,0.2-0.2c0.1-0.1,0.1-0.1,0.2-0.2
		c0.1-0.1,0.2-0.2,0.2-0.3c0-0.1,0.1-0.1,0.1-0.2c0.1-0.1,0.2-0.2,0.2-0.2c0.1-0.1,0.1-0.1,0.2-0.2c0.1-0.1,0.2-0.2,0.4-0.3
		c0,0,0,0,0.1-0.1c0.7-0.6,1.4-1.1,2.3-1.5l0,0c0.1-0.1,0.3-0.1,0.4-0.2c0.1-0.1,0.3-0.1,0.4-0.2c0.3-0.1,0.7-0.3,1-0.4c0,0,0,0,0,0
		l3.1-0.9l0.7-0.2l0,0l4.7-1.4l5-1.5L460.8,168z M449.6,212.1l-5.4-2.2l1.7,5.6c0,0,0,0,0,0c0.1,0.2,0.1,0.4,0.2,0.6
		c0,0,0,0.1,0,0.1c0.1,0.2,0.1,0.3,0.2,0.5c0,0,0,0,0,0.1c0.1,0.2,0.2,0.4,0.4,0.7L449.6,212.1z M454.5,203l-14.1-5.8l2.4,7.9
		l8.7,3.6L454.5,203z M437.1,184.6c0,0.1,0,0.2,0,0.4c0,0.1,0,0.2,0,0.2c0,0.2,0,0.3,0,0.5c0,0.1,0,0.3,0.1,0.4c0,0.1,0,0.2,0.1,0.4
		c0,0.2,0.1,0.4,0.2,0.7c0,0,0,0.1,0,0.1l1.5,5.1l17.4,7.2l3-5.7L437.1,184.6z"/>
	<path class="st0" d="M327,178.4l30.7,29.9c4.8,4.7,4,10.2-2,12.1l-37.5,12.4c-1,0.3-2,0.5-2.9,0.5c-4.2,0-6.8-3.6-5.9-9.1l6.8-42.3
		c0.7-4.1,2.7-6.3,5.3-6.3C323.2,175.7,325.1,176.5,327,178.4z M354.9,211l-30.7-29.9c-1.2-1.2-2.2-1.6-2.7-1.6
		c-0.5,0-1.2,1.1-1.5,3l-6.8,42.3c-0.3,1.8-0.1,3.3,0.6,4c0.2,0.2,0.6,0.6,1.5,0.6c0.5,0,1.1-0.1,1.7-0.3l37.5-12.4
		c1.3-0.4,2.2-1.1,2.4-1.9C357,214,356.6,212.6,354.9,211z"/>
	<path class="st0" d="M281.5,124.6c0-9.7,7.9-17.6,17.6-17.6s17.6,7.9,17.6,17.6c0,9.7-7.9,17.6-17.6,17.6S281.5,134.3,281.5,124.6z
		 M285.3,124.6c0,7.6,6.1,13.7,13.7,13.7c7.6,0,13.7-6.1,13.7-13.7c0-7.6-6.1-13.7-13.7-13.7C291.5,110.9,285.3,117,285.3,124.6z"/>
	<path class="st0" d="M271.6,124.6c0-15.2,12.3-27.4,27.4-27.4c15.2,0,27.4,12.3,27.4,27.4c0,15.2-12.3,27.4-27.4,27.4
		C283.9,152,271.6,139.7,271.6,124.6z M275.5,124.6c0,13,10.6,23.6,23.6,23.6s23.6-10.6,23.6-23.6S312,101,299,101
		S275.5,111.6,275.5,124.6z"/>
	<path class="st0" d="M386,146.5l6.6,3c4.1,1.9,10.9,4.9,15,6.8l6.6,3c1.3,0.6,2.6,0.9,3.6,0.9c3.3,0,5.1-2.7,4.2-7.1l-2.3-12
		c-1-5,1.8-11.1,6.2-13.7l10.5-6.2c5.2-3,4.9-7.5-0.6-10l-6.6-3c-4.1-1.9-10.9-4.9-15-6.8l-6.6-3c-1.3-0.6-2.6-0.9-3.6-0.9v3.9
		c0.3,0,1,0.1,2.1,0.6l6.6,3l15,6.8l6.6,3c1.4,0.7,1.9,1.3,2,1.5c0,0.2-0.4,0.9-1.8,1.7l-10.5,6.2c-5.8,3.4-9.3,11.2-8,17.8l2.3,12
		c0.3,1.6,0,2.3-0.1,2.5c0,0-0.2,0-0.4,0c-0.3,0-1-0.1-2.1-0.6l-6.6-3l-10.3-4.6l-4.7-2.1l-6.6-3c-1.4-0.7-1.9-1.3-2-1.5
		c0-0.2,0.4-0.9,1.8-1.7l10.5-6.2c5.8-3.4,9.3-11.2,8-17.8l-2.3-12c-0.3-1.6,0-2.3,0.1-2.5c0,0,0.2,0,0.4,0l0-3.9c0,0,0,0,0,0
		c-3.3,0-5.1,2.7-4.2,7.1l2.3,12c1,5-1.8,11.1-6.2,13.7l-10.5,6.2C380.3,139.5,380.6,144,386,146.5z"/>
	<path class="st0" d="M323.9,67c0,0,0-0.1,0-0.1c0-0.1,0-0.2,0-0.2c0-0.1,0-0.3,0-0.4c0-0.3,0-0.5,0.1-0.8l0.6-4l1.3-8.9l0.8-5.4
		L327,45l1-6.7l0,0l0.1-0.9h1.1h2.8h0l-0.7,5.1L331,44l5.4-4l-1.9-2.6h4.8l0.2,0.3l0,0l1.9,2.5l4.3,5.7l0,0l0.5,0.6l23.3,31
		c1.6-1.2,2.7-3,3-5.1l4.2-29.2c0.3-2-0.2-4.1-1.5-5.8c0,0-0.1-0.1-0.1-0.1h4.5c0.9,1.9,1.2,4.2,0.9,6.4L376.3,73
		c-0.5,3.2-2.2,5.9-4.6,7.7l0,0c0,0,0,0,0,0c0,0-0.1,0.1-0.1,0.1c0,0-0.1,0.1-0.1,0.1c-0.1,0.1-0.3,0.2-0.4,0.3c0,0-0.1,0.1-0.1,0.1
		c-0.1,0-0.1,0.1-0.2,0.1c0,0-0.1,0-0.1,0.1c-0.1,0.1-0.3,0.1-0.4,0.2c0,0-0.1,0-0.1,0.1c-0.1,0-0.2,0.1-0.3,0.1c0,0,0,0-0.1,0
		c-0.1,0.1-0.2,0.1-0.4,0.2c0,0,0,0,0,0c-0.1,0.1-0.3,0.1-0.4,0.2c0,0,0,0-0.1,0c-0.1,0-0.2,0.1-0.3,0.1c-0.1,0-0.1,0-0.2,0.1
		c-0.2,0.1-0.3,0.1-0.5,0.1c0,0-0.1,0-0.1,0c-0.1,0-0.1,0-0.2,0c0,0-0.1,0-0.1,0c-0.2,0-0.4,0.1-0.5,0.1c-0.1,0-0.1,0-0.2,0
		c0,0,0,0-0.1,0c0,0,0,0-0.1,0c-0.2,0-0.5,0.1-0.8,0.1c0,0-0.1,0-0.1,0c0,0-0.1,0-0.1,0c-0.3,0-0.6,0-0.8,0c0,0,0,0,0,0c0,0,0,0,0,0
		c0,0-0.1,0-0.1,0c0,0,0,0,0,0l0,0c-0.5,0-1,0-1.5-0.1l-29.2-4.2c-0.7-0.1-1.4-0.3-2-0.5c0,0,0,0,0,0c-0.4-0.1-0.8-0.3-1.2-0.5
		c0,0-0.1,0-0.1,0c-0.2-0.1-0.4-0.2-0.5-0.3c0,0,0,0,0,0c-0.2-0.1-0.4-0.2-0.6-0.3c-0.1,0-0.1-0.1-0.2-0.1c-0.1-0.1-0.3-0.2-0.4-0.3
		c0,0,0,0,0,0c-0.2-0.1-0.3-0.3-0.5-0.4c0,0,0,0-0.1,0c-0.2-0.1-0.3-0.3-0.5-0.4c0,0-0.1-0.1-0.1-0.1c0,0,0,0-0.1,0c0,0,0,0,0,0
		c-0.1-0.1-0.2-0.2-0.3-0.3c0,0,0,0-0.1-0.1c-0.3-0.3-0.6-0.6-0.8-0.9c0,0,0,0,0,0c0,0-0.1-0.1-0.1-0.1c0,0,0,0,0,0
		c-0.1-0.2-0.3-0.4-0.4-0.6c0-0.1-0.1-0.1-0.1-0.2c0,0,0,0,0,0l0,0c-0.2-0.2-0.3-0.5-0.4-0.7c0,0,0,0,0-0.1c-0.6-1.1-1-2.4-1.3-3.7
		c0,0,0,0,0,0c0-0.2-0.1-0.3-0.1-0.5c0-0.1,0-0.1,0-0.2c0-0.1,0-0.2,0-0.3c0-0.1,0-0.3,0-0.4C323.9,67.3,323.9,67.2,323.9,67z
		 M363.4,75.9l-3.4,2.6l3.7,0.5c0.4,0.1,0.7,0.1,1.1,0.1c0,0,0,0,0,0c0.2,0,0.4,0,0.6,0c0.1,0,0.1,0,0.1,0c0.1,0,0.1,0,0.2,0
		L363.4,75.9z M361,72.8l-3.8-5.1l-11.7,8.7l9,1.3L361,72.8z M354.9,64.6l-3.8-5.1l-19.3,14.4c0.2,0.1,0.4,0.2,0.6,0.3
		c0.1,0,0.2,0.1,0.2,0.1c0.2,0.1,0.3,0.1,0.5,0.2c0.1,0,0.3,0.1,0.4,0.1c0.1,0,0.2,0.1,0.3,0.1c0.3,0.1,0.5,0.1,0.8,0.1l5.6,0.8
		L354.9,64.6z M348.7,56.4l-3.8-5.1l-16.7,12.4l-0.3,2.4c0,0.3-0.1,0.5-0.1,0.8c0,0.1,0,0.2,0,0.4c0,0.1,0,0.3,0,0.4
		c0,0.2,0,0.4,0.1,0.5c0,0.1,0,0.1,0,0.2c0.2,1,0.5,1.9,1,2.8L348.7,56.4z M329,58.3l13.6-10.1l-3.8-5.1l-8.5,6.3l-1.1,8L329,58.3z"
		/>
	<polygon class="st0" points="461.2,37.4 462.6,40.2 462.6,37.4 	"/>
	<path class="st0" d="M435.8,53l2.4-6.9l18-8.7h-8.9l-7.3,3.5l1.2-3.5H437l-2,5.9l0,0l-0.2,0.5l-2.7,7.9c-0.2,0.5-0.3,1-0.4,1.4
		c-0.2,0.7-0.3,1.3-0.3,2c0,0.1,0,0.1,0,0.2c0,0.2,0,0.3,0,0.5c0,0.1,0,0.2,0,0.2c0,0.2,0,0.4,0,0.7c0,0,0,0,0,0c0,0.2,0,0.4,0,0.6
		c0,0,0,0.1,0,0.1c0,0.2,0,0.4,0.1,0.6c0,0,0,0,0,0.1c0,0.1,0,0.2,0.1,0.4c0,0,0,0,0,0c0,0.1,0,0.1,0,0.2c0,0.1,0,0.1,0,0.2
		c0,0.2,0.1,0.3,0.1,0.5c0,0.1,0,0.2,0,0.2c0,0.2,0.1,0.4,0.1,0.5c0,0.1,0,0.1,0,0.2c0.1,0.2,0.1,0.4,0.2,0.7c0,0.1,0.1,0.1,0.1,0.2
		c0,0.1,0,0.1,0.1,0.2c0.1,0.3,0.2,0.6,0.3,0.9c0,0,0,0,0,0.1c0.2,0.4,0.3,0.7,0.5,1c0.1,0.1,0.1,0.2,0.2,0.3
		c0.1,0.2,0.2,0.3,0.3,0.5c0,0.1,0.1,0.1,0.1,0.2c0,0.1,0.1,0.1,0.1,0.2c0.2,0.3,0.4,0.6,0.6,0.9c0,0,0.1,0.1,0.1,0.1
		c0.2,0.2,0.4,0.5,0.6,0.7l0,0c0,0,0,0,0,0c0.1,0.1,0.1,0.1,0.2,0.2c0,0,0,0,0,0c0.1,0.1,0.2,0.2,0.2,0.2c0,0,0,0,0.1,0.1
		c0.2,0.2,0.4,0.4,0.6,0.5c0,0,0.1,0.1,0.1,0.1c0,0,0.1,0.1,0.1,0.1c0.2,0.2,0.4,0.3,0.5,0.4c0,0,0.1,0.1,0.1,0.1c0,0,0,0,0.1,0
		c0.2,0.1,0.3,0.3,0.5,0.4c0.1,0,0.1,0.1,0.2,0.1c0.2,0.1,0.4,0.2,0.5,0.4c0,0,0,0,0.1,0c0,0,0.1,0,0.1,0.1c0.2,0.1,0.4,0.2,0.5,0.3
		c0.1,0,0.1,0.1,0.2,0.1c0.2,0.1,0.3,0.2,0.5,0.3c0.1,0.1,0.2,0.1,0.4,0.2c0.1,0.1,0.3,0.1,0.4,0.2c0.3,0.1,0.5,0.2,0.8,0.3
		c0,0,0,0,0,0l21.4,7.3v0v-2v-2.1l-6.1-2.1l6.1-2.9v-4.3l-11.3,5.4l-8.6-2.9l19.9-9.6v-4.3l-23.9,11.6c-1.6-1.5-2.7-3.4-3.2-5.5
		l27.1-13.1v-4.3l-27.2,13.2C435.5,54,435.6,53.5,435.8,53z"/>
	<path class="st0" d="M234.4,443.4c2.7,6,0.2,10.6-5.6,10.6c-0.2,0-0.4,0-0.6,0l-39.4-2.1c-6.2-0.3-8.5-5.4-5.1-11.2l21.8-36.9
		c1.7-2.8,3.7-4.2,5.7-4.2c2.1,0,4.2,1.6,5.6,4.8L234.4,443.4z M230.8,445l-17.7-39c-0.8-1.8-1.7-2.5-2.1-2.5
		c-0.4,0-1.3,0.6-2.3,2.3L187,442.6c-1.2,2-1.2,3.5-0.9,4.2c0.4,0.7,1.4,1.1,2.8,1.2l39.4,2.1c0.1,0,0.3,0,0.4,0
		c0.7,0,2-0.1,2.5-0.9C231.7,448.5,231.8,447.1,230.8,445z"/>
	<path class="st0" d="M192.6,338.2c1.3,0.6,2.6,0.9,3.6,0.9c3.3,0,5.1-2.7,4.2-7.1l-2.3-12c-1-5,1.8-11.1,6.2-13.7l10.5-6.2
		c5.2-3,4.9-7.5-0.6-10l-6.6-3c-4.1-1.9-10.9-4.9-15-6.8l-6.6-3c-1.3-0.6-2.6-0.9-3.6-0.9v3.9c0.3,0,1,0.1,2.1,0.6l6.6,3l10.4,4.7
		l4.6,2.1l6.6,3c1.4,0.7,1.9,1.3,2,1.5c0,0.2-0.4,0.9-1.8,1.7l-10.5,6.2c-5.8,3.4-9.3,11.2-8,17.8l2.3,12c0.3,1.6,0,2.3-0.1,2.5
		c0,0-0.2,0-0.4,0c-0.3,0-1-0.1-2.1-0.6l-6.6-3l-10.4-4.7l-4.6-2.1l-6.6-3c-1.4-0.7-1.9-1.3-2-1.5c0-0.2,0.4-0.9,1.8-1.7l10.5-6.2
		c5.8-3.4,9.3-11.2,8-17.8l-2.3-12c-0.3-1.6,0-2.3,0.1-2.5c0,0,0.2,0,0.4,0l0-3.9c0,0,0,0,0,0c-3.3,0-5.1,2.7-4.2,7.1l2.3,12
		c1,5-1.8,11.1-6.2,13.7l-10.5,6.2c-5.2,3-4.9,7.5,0.6,10l6.6,3c4.1,1.9,10.9,4.9,15,6.8L192.6,338.2z"/>
	<path class="st0" d="M51.1,378.1l-13.7-13.6v5.4l11,10.9c2,2,3,4.1,2.6,5.7c-0.4,1.7-2.5,2.6-3.7,3l-9.9,3.2v4.1l11.1-3.6
		C55.9,390.8,57.1,384,51.1,378.1z"/>
	<path class="st0" d="M79,290.9c11.6,0,21,9.4,21,21c0,11.6-9.4,21-21,21c-11.6,0-21-9.4-21-21C58,300.3,67.4,290.9,79,290.9z
		 M79,294.8c-9.5,0-17.1,7.7-17.1,17.1c0,9.5,7.7,17.1,17.1,17.1c9.5,0,17.1-7.7,17.1-17.1C96.2,302.5,88.5,294.8,79,294.8z"/>
	<path class="st0" d="M79,277.6c18.9,0,34.3,15.4,34.3,34.3S98,346.2,79,346.2c-18.9,0-34.3-15.4-34.3-34.3S60.1,277.6,79,277.6z
		 M79,281.5c-16.8,0-30.4,13.6-30.4,30.4s13.6,30.4,30.4,30.4c16.8,0,30.4-13.6,30.4-30.4S95.8,281.5,79,281.5z"/>
	<path class="st0" d="M142.9,402.2c-4.5-4.4-6.1-12.7-3.4-18.5l6.4-13.8c2.8-6,0.4-10.1-5.2-10.1v3.9c1.1,0,2,0.3,2.3,0.7
		c0.4,0.6,0.3,2-0.6,3.9l-6.4,13.8c-3.3,7.2-1.5,17.3,4.2,22.9l10.9,10.7c1.6,1.6,2.1,2.9,1.9,3.5c-0.2,0.6-1.4,1.5-3.6,1.9
		l-8.9,1.6l-10.1,1.9l-10.1,1.9l-8.9,1.6c-0.6,0.1-1.3,0.2-1.8,0.2c-1.1,0-2-0.3-2.3-0.7c-0.4-0.6-0.3-2,0.6-3.9l6.4-13.8
		c3.3-7.2,1.5-17.3-4.2-22.9l-10.9-10.7c-1.6-1.6-2.1-2.9-1.9-3.5c0.2-0.6,1.4-1.5,3.6-1.9l8.9-1.6l14.6-2.7l5.6-1l8.9-1.6
		c0.6-0.1,1.2-0.2,1.8-0.2l0-3.9c0,0,0,0,0,0c-0.8,0-1.6,0.1-2.5,0.2l-8.9,1.6c-5.6,1-14.7,2.7-20.2,3.7l-8.9,1.6
		c-7.4,1.4-9,6.7-3.7,12l10.9,10.7c4.5,4.4,6.1,12.7,3.4,18.5l-6.4,13.8c-2.8,6-0.4,10.1,5.2,10.1c0.8,0,1.6-0.1,2.5-0.2l8.9-1.6
		c5.6-1,14.7-2.7,20.2-3.7l8.9-1.6c7.4-1.4,9-6.7,3.7-12L142.9,402.2z"/>
	<path class="st0" d="M72.2,445L37.4,433v4.1l33.5,11.5c5.6,1.9,8.6,8,6.7,13.6l-0.1,0.4h4.1C83.5,455.3,79.5,447.5,72.2,445z"/>
	<polygon class="st0" points="37.4,456.6 37.4,459.4 37.4,462.6 40.4,462.6 37.4,456.6 	"/>
	<path class="st0" d="M55.9,124.9l36.1-23c1.8-1.1,3.4-1.6,4.8-1.6c3.2,0,5.2,2.7,5,7.3l-2,42.8c-0.2,4.9-2.8,7.8-6.2,7.8
		c-1.3,0-2.7-0.4-4.1-1.2l-34.1-19.8C49.9,134,50.2,128.5,55.9,124.9z M55.3,131.5c0,0.8,0.7,1.6,2,2.3l34.1,19.8
		c1,0.6,1.8,0.7,2.2,0.7c2.1,0,2.3-3.5,2.4-4.1l2-42.8c0.1-1.7-0.3-2.8-0.6-3.1c-0.1-0.1-0.2-0.2-0.5-0.2c-0.3,0-1.3,0.1-2.7,1
		l-36.1,23C56,129.4,55.3,130.7,55.3,131.5z"/>
	<path class="st0" d="M223.4,192.5c15.2,0,27.4,12.3,27.4,27.4c0,15.2-12.3,27.4-27.4,27.4c-15.2,0-27.4-12.3-27.4-27.4
		C196,204.8,208.3,192.5,223.4,192.5z M223.4,196.4c-13,0-23.6,10.6-23.6,23.6c0,13,10.6,23.6,23.6,23.6c13,0,23.6-10.6,23.6-23.6
		C247,207,236.4,196.4,223.4,196.4z"/>
	<path class="st0" d="M223.4,202.4c9.7,0,17.6,7.9,17.6,17.6c0,9.7-7.9,17.6-17.6,17.6c-9.7,0-17.6-7.9-17.6-17.6
		C205.8,210.2,213.7,202.4,223.4,202.4z M223.4,206.2c-7.6,0-13.7,6.1-13.7,13.7s6.1,13.7,13.7,13.7c7.6,0,13.7-6.1,13.7-13.7
		S231,206.2,223.4,206.2z"/>
	<path class="st0" d="M130.7,207.6l6.9,2.3c4.3,1.4,11.3,3.8,15.6,5.3l6.9,2.3c1.1,0.4,2.2,0.6,3.1,0.6c3.7,0,5.5-2.9,4.1-7.5
		l-3.5-11.7c-1.4-4.9,0.7-11.3,4.8-14.3l9.8-7.2c4.8-3.5,4.1-8-1.5-9.9l-6.9-2.3c-4.3-1.4-11.3-3.8-15.6-5.3l-6.9-2.3
		c-1.1-0.4-2.2-0.6-3.1-0.6v3.9c0.4,0,1,0.1,1.8,0.4l6.9,2.3l13.1,4.4l2.5,0.8l6.9,2.3c1.5,0.5,2,1.1,2.1,1.3c0,0.2-0.3,0.9-1.6,1.8
		l-9.8,7.2c-5.4,3.9-8.1,12.1-6.2,18.5l3.5,11.7c0.5,1.5,0.3,2.3,0.2,2.5c-0.1,0-0.2,0.1-0.6,0.1c-0.4,0-1-0.1-1.8-0.4l-6.9-2.3
		l-5.3-1.8l-10.3-3.5l-6.9-2.3c-1.5-0.5-2-1.1-2.1-1.3c0-0.2,0.3-0.9,1.6-1.8l9.8-7.2c5.4-3.9,8.1-12.1,6.2-18.5l-3.5-11.7
		c-0.5-1.5-0.3-2.3-0.2-2.5c0.1,0,0.2-0.1,0.6-0.1l0-3.9c0,0,0,0,0,0c-3.7,0-5.5,2.9-4.1,7.5l3.5,11.7c1.4,4.9-0.7,11.3-4.8,14.3
		l-9.8,7.2C124.3,201.2,125,205.6,130.7,207.6z"/>
	<path class="st0" d="M163.9,91.3c0-18.9,15.4-34.3,34.3-34.3c18.9,0,34.3,15.4,34.3,34.3c0,18.9-15.4,34.3-34.3,34.3
		C179.2,125.6,163.9,110.2,163.9,91.3z M167.8,91.3c0,16.8,13.6,30.4,30.4,30.4s30.4-13.6,30.4-30.4c0-16.8-13.6-30.4-30.4-30.4
		S167.8,74.5,167.8,91.3z"/>
	<path class="st0" d="M177.2,91.3c0-11.6,9.4-21,21-21c11.6,0,21,9.4,21,21s-9.4,21-21,21C186.6,112.3,177.2,102.9,177.2,91.3z
		 M181,91.3c0,9.5,7.7,17.1,17.1,17.1c9.5,0,17.1-7.7,17.1-17.1c0-9.5-7.7-17.1-17.1-17.1C188.7,74.2,181,81.8,181,91.3z"/>
	<path class="st0" d="M50.8,82.1l-13.4-4.6v0v-2v-2.1l2.5,0.9l11.5-5.6L48.6,63l-11.2,5.4v-4.3l9.5-4.6l-2.8-5.7l-6.7,3.2v-4.3
		l5-2.4l-2.8-5.7l-2.2,1.1v-4.3l0.5-0.2l-0.5-1v-2.8h3l1.8,3.7l0.9,1.8l0,0l17.2,35c2.5-1.2,4.5-3.4,5.4-6.1l11.8-34.4h4.1
		c-0.1,0.3-0.2,0.6-0.3,0.9L69.3,73.1c-1.3,3.8-4,6.7-7.4,8.3l0,0c-0.3,0.1-0.6,0.3-0.9,0.4c-0.1,0-0.2,0.1-0.3,0.1
		c-0.2,0.1-0.5,0.2-0.7,0.3c-0.1,0-0.2,0.1-0.3,0.1c-0.3,0.1-0.6,0.2-0.9,0.2c0,0-0.1,0-0.1,0c-0.3,0.1-0.7,0.1-1,0.2
		c-0.1,0-0.2,0-0.3,0c-0.2,0-0.5,0.1-0.7,0.1c-0.1,0-0.2,0-0.3,0c-0.3,0-0.7,0-1,0c0,0,0,0,0,0c-0.3,0-0.5,0-0.8,0l0,0
		c-0.1,0-0.2,0-0.3,0c0,0,0,0,0,0c0,0-0.1,0-0.1,0c0,0,0,0,0,0c-0.3,0-0.6-0.1-1-0.1c-0.1,0-0.1,0-0.2,0c-0.3-0.1-0.7-0.1-1-0.2
		c0,0-0.1,0-0.1,0c0,0-0.1,0-0.1,0c0,0,0,0,0,0C51.5,82.4,51.1,82.3,50.8,82.1C50.8,82.1,50.8,82.1,50.8,82.1z M45.1,76.1l6.9,2.4
		c0.6,0.2,1.3,0.4,1.9,0.5l1.9-0.9l-2.8-5.7L45.1,76.1z"/>
	<path class="st0" d="M59.8,215.8l-22.4,6.8v-4l21.2-6.4c4.1-1.2,6.4-5.6,5.2-9.7l-8.5-28.2c-0.6-2-2-3.6-3.8-4.6l-2.2,4.1l-1.8,3.4
		l-7.9,14.8l0,0l-1.5,2.7l-0.7,1.4v-0.8V191v-3.2l1.6-3l-1.6-0.7v-4.2l3.5,1.4l3-5.7l-6.5-2.7v-4.2v-1.3l7.1-2.1l0,0
		c0.2-0.1,0.3-0.1,0.5-0.1c0.1,0,0.2-0.1,0.3-0.1c0,0,0.1,0,0.1,0c0.2,0,0.4-0.1,0.6-0.1c0,0,0.1,0,0.1,0c0,0,0,0,0,0
		c0.2,0,0.5-0.1,0.7-0.1c0,0,0.1,0,0.1,0c0,0,0.1,0,0.1,0c0.2,0,0.4,0,0.6,0c0,0,0.1,0,0.1,0c0,0,0,0,0,0c0.2,0,0.4,0,0.7,0
		c0,0,0.1,0,0.1,0c0,0,0,0,0,0c0.1,0,0.1,0,0.2,0c0.1,0,0.2,0,0.3,0c0.1,0,0.1,0,0.2,0c0.1,0,0.2,0,0.3,0c0,0,0,0,0.1,0
		c0,0,0.1,0,0.1,0c0.1,0,0.1,0,0.2,0c0.1,0,0.3,0.1,0.4,0.1c0,0,0.1,0,0.1,0c0,0,0.1,0,0.1,0c0.2,0.1,0.4,0.1,0.6,0.2
		c0,0,0.1,0,0.1,0c0,0,0.1,0,0.1,0c0.1,0,0.3,0.1,0.4,0.1c0.1,0,0.1,0.1,0.2,0.1c0.1,0,0.1,0,0.2,0.1c0,0,0,0,0,0
		c0.1,0,0.2,0.1,0.2,0.1c0.1,0,0.1,0.1,0.2,0.1c0.1,0,0.2,0.1,0.3,0.2c0,0,0.1,0,0.1,0.1c0,0,0.1,0,0.1,0.1l0,0
		c2.6,1.4,4.7,3.8,5.7,6.9l8.5,28.2C69.4,207.4,65.9,214,59.8,215.8z M45.7,172.3l1.9-3.5c-0.1,0-0.1,0-0.2,0c-0.1,0-0.2,0-0.2,0
		c-0.1,0-0.2,0-0.3,0c-0.1,0-0.1,0-0.2,0c-0.1,0-0.2,0-0.4,0.1c-0.1,0-0.1,0-0.2,0c-0.2,0-0.4,0.1-0.5,0.1l-4.4,1.3L45.7,172.3z"/>
	<path class="st0" d="M138.8,248c-5.4,0-9.8,4.4-9.8,9.8c0,5.4,4.4,9.8,9.8,9.8c5.4,0,9.8-4.4,9.8-9.8
		C148.6,252.5,144.2,248,138.8,248 M138.8,244.2c7.6,0,13.7,6.1,13.7,13.7s-6.1,13.7-13.7,13.7s-13.7-6.1-13.7-13.7
		S131.2,244.2,138.8,244.2L138.8,244.2z"/>
	<path class="st0" d="M268.5,65.1c-5.4,0-9.8,4.4-9.8,9.8s4.4,9.8,9.8,9.8c5.4,0,9.8-4.4,9.8-9.8S274,65.1,268.5,65.1 M268.5,61.3
		c7.6,0,13.7,6.1,13.7,13.7s-6.1,13.7-13.7,13.7s-13.7-6.1-13.7-13.7S261,61.3,268.5,61.3L268.5,61.3z"/>
	<path class="st0" d="M400.2,215.3c-5.4,0-9.8,4.4-9.8,9.8s4.4,9.8,9.8,9.8c5.4,0,9.8-4.4,9.8-9.8S405.7,215.3,400.2,215.3
		 M400.2,211.5c7.6,0,13.7,6.1,13.7,13.7c0,7.6-6.1,13.7-13.7,13.7c-7.6,0-13.7-6.1-13.7-13.7C386.5,217.6,392.6,211.5,400.2,211.5
		L400.2,211.5z"/>
	<path class="st0" d="M235.9,353.2c-5.4,0-9.8,4.4-9.8,9.8c0,5.4,4.4,9.8,9.8,9.8c5.4,0,9.8-4.4,9.8-9.8
		C245.7,357.6,241.3,353.2,235.9,353.2 M235.9,349.3c7.6,0,13.7,6.1,13.7,13.7s-6.1,13.7-13.7,13.7s-13.7-6.1-13.7-13.7
		S228.3,349.3,235.9,349.3L235.9,349.3z"/>
	<path class="st0" d="M120.8,60.1c-5.4,0-9.8,4.4-9.8,9.8s4.4,9.8,9.8,9.8c5.4,0,9.8-4.4,9.8-9.8S126.3,60.1,120.8,60.1 M120.8,56.2
		c7.6,0,13.7,6.1,13.7,13.7c0,7.6-6.1,13.7-13.7,13.7c-7.6,0-13.7-6.1-13.7-13.7C107.1,62.3,113.3,56.2,120.8,56.2L120.8,56.2z"/>
	<path class="st0" d="M273.2,266.9l-33.2,3.4l0.6,5.9l33.2-3.4L273.2,266.9 M276.6,262.7l1.4,13.6l-40.9,4.2l-1.4-13.6L276.6,262.7
		L276.6,262.7z"/>
	<path class="st0" d="M367.3,156.4l-5.2,3l16.7,28.9l5.2-3L367.3,156.4 M368.7,151.1l20.6,35.6l-11.9,6.9L356.9,158L368.7,151.1
		L368.7,151.1z"/>
	<path class="st0" d="M250.1,160l-3.6,4.8l26.8,19.9l3.6-4.8L250.1,160 M249.3,154.6l33,24.5l-8.2,11l-33-24.5L249.3,154.6
		L249.3,154.6z"/>
	<path class="st0" d="M433.1,270.2l-5.2,3l16.7,28.9l5.2-3L433.1,270.2 M434.5,265l20.6,35.6l-11.9,6.9l-20.6-35.6L434.5,265
		L434.5,265z"/>
	<path class="st0" d="M84.5,241l-31.4,11.5l2.1,5.6l31.4-11.5L84.5,241 M86.8,236.1l4.7,12.9l-38.6,14.2l-4.7-12.9L86.8,236.1
		L86.8,236.1z"/>
</g>
</svg>
