<?xml version="1.0" encoding="UTF-8" standalone="no"?>
<!DOCTYPE svg PUBLIC "-//W3C//DTD SVG 1.1//EN" "http://www.w3.org/Graphics/SVG/1.1/DTD/svg11.dtd">
<svg width="100%" height="100%" viewBox="0 0 129 129" version="1.1" xmlns="http://www.w3.org/2000/svg" xmlns:xlink="http://www.w3.org/1999/xlink" xml:space="preserve" xmlns:serif="http://www.serif.com/" style="fill-rule:evenodd;clip-rule:evenodd;stroke-linejoin:round;stroke-miterlimit:2;">
    <g transform="matrix(1,0,0,1,-584.621,-234.922)">
        <g transform="matrix(1,0,0,1,649.044,267.134)">
            <g id="SYMBOL---HORIZONTAL" serif:id="SYMBOL / HORIZONTAL">
                <path d="M0,64.423C-17.79,64.423 -32.211,50.001 -32.211,32.211C-32.211,14.421 -17.79,-0 0,-0C17.79,-0 32.212,14.421 32.212,32.211C32.212,50.001 17.79,64.423 0,64.423M0,-32.212C-35.58,-32.212 -64.423,-3.369 -64.423,32.211C-64.423,67.791 -35.58,96.635 0,96.635C35.58,96.635 64.423,67.791 64.423,32.211C64.423,-3.369 35.58,-32.212 0,-32.212" style="fill:rgb(0,128,234);fill-rule:nonzero;"/>
            </g>
        </g>
    </g>
</svg>
