<?xml version="1.0" encoding="UTF-8" standalone="no"?>
<!DOCTYPE svg PUBLIC "-//W3C//DTD SVG 1.1//EN" "http://www.w3.org/Graphics/SVG/1.1/DTD/svg11.dtd">
<svg width="100%" height="100%" viewBox="0 0 124 124" version="1.1" xmlns="http://www.w3.org/2000/svg" xmlns:xlink="http://www.w3.org/1999/xlink" xml:space="preserve" xmlns:serif="http://www.serif.com/" style="fill-rule:evenodd;clip-rule:evenodd;stroke-linejoin:round;stroke-miterlimit:2;">
    <g transform="matrix(1,0,0,1,-291.832,-237.4)">
        <g id="SYMBOL---HORIZONTAL" serif:id="SYMBOL / HORIZONTAL">
            <g transform="matrix(1,0,0,1,319.196,361.291)">
                <path d="M0,-123.891C-15.05,-123.891 -27.363,-111.577 -27.363,-96.528L-27.364,-27.363C-27.364,-12.314 -15.05,0 0,0L69.164,0C84.214,0 96.528,-12.314 96.528,-27.363L96.528,-96.528C96.528,-111.577 84.214,-123.891 69.164,-123.891L0,-123.891Z" style="fill:rgb(0,205,74);fill-rule:nonzero;"/>
            </g>
            <g transform="matrix(1,0,0,1,319.188,245.437)">
                <path d="M0,115.853L69.181,115.853C76.703,115.851 83.54,112.773 88.498,107.815L-19.317,0C-24.274,4.958 -27.352,11.795 -27.355,19.317L-27.355,88.49C-27.355,103.537 -15.046,115.849 0,115.853" style="fill:rgb(0,118,77);fill-rule:nonzero;"/>
            </g>
        </g>
    </g>
</svg>
